# xmcd
#
# Track frame offsets:
#	150
#	17629
#	27526
#	45961
#	62499
#	80371
#	91272
#	109094
#	122828
#	132767
#	149458
#	162869
#	174020
#	185436
#
# Disc length: 2709 seconds
#
# Revision: 1
# Processed by: cddbd v1.5.2PL0 Copyright (c) Steve Scherf et al.
# Submitted via: audiograbber 1.83.01
#
DISCID=aa0a930e
DTITLE=Gary Mcevoy and Philomena Begley - Live At The Town Hall
DYEAR=1900
DGENRE=
TTITLE0=Look At Us
TTITLE1=Blue Moon Of Kentucky
TTITLE2=My Kind Of Woman, My Kind Of Man
TTITLE3=Finding My Way Back Home
TTITLE4=Gold And Silver Days
TTITLE5=Things
TTITLE6=Sentimental Old You Medley
TTITLE7=Here Comes My Baby
TTITLE8=Fooling Around
TTITLE9=If Tomorrow Never Comes
TTITLE10=The Queen Of The Silver Dollar
TTITLE11=Rockin Robin
TTITLE12=I Never Really Knew You
TTITLE13=The Blanket On The Ground
EXTD=
EXTT0=
EXTT1=
EXTT2=
EXTT3=
EXTT4=
EXTT5=
EXTT6=
EXTT7=
EXTT8=
EXTT9=
EXTT10=
EXTT11=
EXTT12=
EXTT13=
PLAYORDER=
